<?xml version="1.0" encoding="UTF-8" standalone="no"?>
<svg
   xmlns:dc="http://purl.org/dc/elements/1.1/"
   xmlns:cc="http://creativecommons.org/ns#"
   xmlns:rdf="http://www.w3.org/1999/02/22-rdf-syntax-ns#"
   xmlns:svg="http://www.w3.org/2000/svg"
   xmlns="http://www.w3.org/2000/svg"
   xmlns:xlink="http://www.w3.org/1999/xlink"
   xmlns:sodipodi="http://sodipodi.sourceforge.net/DTD/sodipodi-0.dtd"
   xmlns:inkscape="http://www.inkscape.org/namespaces/inkscape"
   width="193"
   height="296"
   viewBox="0 0 51.064582 78.316669"
   version="1.1"
   id="svg1060"
   inkscape:version="1.0.2 (1.0.2+r75+1)"
   sodipodi:docname="1.svg">
  <defs
     id="defs1054">
    <linearGradient
       inkscape:collect="always"
       xlink:href="#linearGradient1339"
       id="linearGradient1347"
       x1="76.250809"
       y1="159.23947"
       x2="105.65126"
       y2="157.92157"
       gradientUnits="userSpaceOnUse" />
    <linearGradient
       inkscape:collect="always"
       id="linearGradient1339">
      <stop
         style="stop-color:#009edf;stop-opacity:0.82352942"
         offset="0"
         id="stop1335" />
      <stop
         style="stop-color:#006eb5;stop-opacity:0.98823529"
         offset="1"
         id="stop1337" />
    </linearGradient>
    <radialGradient
       inkscape:collect="always"
       xlink:href="#linearGradient976"
       id="radialGradient1317"
       cx="136.56252"
       cy="32.990814"
       fx="136.56252"
       fy="32.990814"
       r="19.086842"
       gradientTransform="matrix(-0.40196778,-1.7068229,1.7868727,-0.42082002,132.50586,279.96205)"
       gradientUnits="userSpaceOnUse" />
    <linearGradient
       inkscape:collect="always"
       id="linearGradient976">
      <stop
         style="stop-color:#00c2ff;stop-opacity:1"
         offset="0"
         id="stop972" />
      <stop
         style="stop-color:#0066ad;stop-opacity:0.56922005"
         offset="1"
         id="stop974" />
    </linearGradient>
    <linearGradient
       inkscape:collect="always"
       xlink:href="#linearGradient976"
       id="linearGradient1309"
       x1="196.50114"
       y1="60.076687"
       x2="148.27551"
       y2="108.93336"
       gradientUnits="userSpaceOnUse" />
    <linearGradient
       inkscape:collect="always"
       xlink:href="#linearGradient976"
       id="linearGradient1291"
       x1="71.412781"
       y1="211.4485"
       x2="85.707893"
       y2="211.4485"
       gradientUnits="userSpaceOnUse" />
    <linearGradient
       inkscape:collect="always"
       xlink:href="#linearGradient1281"
       id="linearGradient1283"
       x1="85.342064"
       y1="218.20032"
       x2="124.811"
       y2="129.46417"
       gradientUnits="userSpaceOnUse" />
    <linearGradient
       inkscape:collect="always"
       id="linearGradient1281">
      <stop
         style="stop-color:#0079c0;stop-opacity:1;"
         offset="0"
         id="stop1277" />
      <stop
         style="stop-color:#0079c0;stop-opacity:0;"
         offset="1"
         id="stop1279" />
    </linearGradient>
    <linearGradient
       inkscape:collect="always"
       xlink:href="#linearGradient976"
       id="linearGradient1275"
       x1="54.795094"
       y1="74.910759"
       x2="142.25529"
       y2="88.780228"
       gradientUnits="userSpaceOnUse" />
    <linearGradient
       inkscape:collect="always"
       xlink:href="#linearGradient976"
       id="linearGradient1301"
       x1="225.76111"
       y1="129.75362"
       x2="161.68687"
       y2="153.95244"
       gradientUnits="userSpaceOnUse" />
    <radialGradient
       inkscape:collect="always"
       xlink:href="#linearGradient976"
       id="radialGradient1267"
       cx="136.46747"
       cy="158.98128"
       fx="136.46747"
       fy="158.98128"
       r="39.712528"
       gradientTransform="matrix(2.8351566,-0.15008139,0.13544136,2.5585948,-271.97182,-227.30615)"
       gradientUnits="userSpaceOnUse" />
    <linearGradient
       inkscape:collect="always"
       xlink:href="#linearGradient1255"
       id="linearGradient1259"
       x1="98.341202"
       y1="67.604973"
       x2="281.87128"
       y2="78.433716"
       gradientUnits="userSpaceOnUse" />
    <linearGradient
       inkscape:collect="always"
       id="linearGradient1255">
      <stop
         style="stop-color:#ffffff;stop-opacity:1;"
         offset="0"
         id="stop1251" />
      <stop
         style="stop-color:#ffffff;stop-opacity:0;"
         offset="1"
         id="stop1253" />
    </linearGradient>
    <linearGradient
       inkscape:collect="always"
       xlink:href="#linearGradient1339"
       id="linearGradient1333"
       x1="147.33884"
       y1="115.35369"
       x2="126.57124"
       y2="142.90428"
       gradientUnits="userSpaceOnUse" />
    <linearGradient
       inkscape:collect="always"
       xlink:href="#linearGradient976"
       id="linearGradient1325"
       x1="133.7664"
       y1="115.06841"
       x2="147.73085"
       y2="136.31444"
       gradientUnits="userSpaceOnUse" />
    <linearGradient
       inkscape:collect="always"
       xlink:href="#linearGradient1249"
       id="linearGradient1243"
       x1="58.98378"
       y1="45.042763"
       x2="170.40565"
       y2="265.74002"
       gradientUnits="userSpaceOnUse" />
    <linearGradient
       inkscape:collect="always"
       id="linearGradient1249">
      <stop
         style="stop-color:#f8fdff;stop-opacity:1"
         offset="0"
         id="stop1245" />
      <stop
         style="stop-color:#ffffff;stop-opacity:0.2218203"
         offset="1"
         id="stop1247" />
    </linearGradient>
  </defs>
  <sodipodi:namedview
     id="base"
     pagecolor="#ffffff"
     bordercolor="#666666"
     borderopacity="1.0"
     inkscape:pageopacity="0.0"
     inkscape:pageshadow="2"
     inkscape:zoom="0.98994949"
     inkscape:cx="306.73632"
     inkscape:cy="136.07236"
     inkscape:document-units="mm"
     inkscape:current-layer="layer1"
     inkscape:document-rotation="0"
     showgrid="false"
     units="px"
     inkscape:window-width="1202"
     inkscape:window-height="547"
     inkscape:window-x="79"
     inkscape:window-y="94"
     inkscape:window-maximized="0" />
  <metadata
     id="metadata1057">
    <rdf:RDF>
      <cc:Work
         rdf:about="">
        <dc:format>image/svg+xml</dc:format>
        <dc:type
           rdf:resource="http://purl.org/dc/dcmitype/StillImage" />
        <dc:title></dc:title>
      </cc:Work>
    </rdf:RDF>
  </metadata>
  <g
     inkscape:label="Capa 1"
     inkscape:groupmode="layer"
     id="layer1">
    <g
       id="g1365"
       transform="matrix(0.26458333,0,0,0.26458333,-10.958605,2.4004104)"
       style="display:inline;opacity:0.99;mix-blend-mode:normal;filter:url(#filter989)">
      <path
         id="path75"
         style="display:inline;opacity:0.357629;fill:#ffffff;fill-opacity:1;stroke:none;stroke-width:5.51453;stroke-miterlimit:4;stroke-dasharray:none;stroke-opacity:1;stop-color:#000000"
         d="m 66.100367,58.775024 -27.490685,41.185078 6.194424,5.979578 c 11.234038,10.84085 22.459583,19.55499 31.622136,24.54909 2.530572,1.37929 4.807457,2.51009 5.059657,2.51468 0.252187,0.004 2.025925,-2.41634 3.941403,-5.38191 5.96369,-9.23302 11.402925,-17.97425 16.220078,-26.05019 z M 38.810746,102.46926 c -0.05603,0.056 1.555614,11.36229 3.580593,25.43322 l 44.344251,53.39489 c 3.156216,-3.65766 5.563699,-6.50449 5.563699,-6.65164 0,-0.25308 -1.35055,-5.31397 -3.002194,-11.24857 -1.651629,-5.93465 -4.038171,-14.8833 -5.304787,-19.88605 l -2.305342,-9.09745 -2.42655,-1.06867 C 70.474542,129.46977 57.598322,119.8502 43.969554,106.98632 41.232345,104.40281 38.90922,102.3708 38.810746,102.46926 Z m 63.932854,0.42416 c -4.865931,8.13568 -10.36613,16.94115 -16.492767,26.3752 l -3.343717,5.14504 2.440313,9.45275 c 3.290143,12.74826 8.050846,29.82667 8.463964,30.36342 0.184455,0.23964 0.332399,0.73122 0.32776,1.09071 -0.01128,1.09774 3.316218,11.94957 7.039997,23.36749 l 29.82358,35.91059 c 1.20017,-6.68781 2.99059,-14.13047 5.36538,-22.24099 4.42082,-15.09871 10.27204,-24.34297 21.81407,-34.45631 l 2.69921,-2.36319 0.23962,-2.35492 -28.83202,-34.71522 -0.0113,0.9585 -0.0275,2.30809 -0.0275,2.30811 -0.0248,2.3081 -0.0275,2.30811 -0.0275,2.30811 -0.0248,2.3081 -0.0275,2.30811 -0.0275,2.30809 -0.0248,2.30811 c 0,0 -0.71312,1.14304 -2.26404,1.14304 -1.71266,0 -2.35493,-1.14304 -2.35493,-1.14304 l 0.314,-27.21801 -2.92232,-3.51724 v 30.80686 c 0,0 -0.68842,1.14579 -2.49263,1.14579 -1.63382,1e-5 -2.37147,-1.14579 -2.37147,-1.14579 v -2.30809 -2.30811 -2.30811 -2.3081 -2.30811 -2.30811 -2.3081 -2.3081 -2.3081 -2.30811 -2.30811 -2.3081 -2.30811 -2.3081 -2.30811 -2.04093 l -0.22034,-0.26718 h -2.61658 -2.83693 -2.83418 -2.83694 c 0,0 -1.56776,-0.0764 -1.65533,-2.24749 -0.0877,-2.17104 1.65533,-2.61936 1.65533,-2.61936 h 7.08132 z m 59.12933,71.19594 -0.14597,1.44326 4.02128,3.22254 z m -69.124703,2.67719 c -0.07516,0 -2.269932,2.42399 -5.117484,5.60775 l 11.265092,13.56493 c -1.466145,-4.56012 -2.912971,-9.1849 -4.299467,-13.78251 -0.894294,-2.96561 -1.725961,-5.39017 -1.848141,-5.39017 z m 67.786113,0.4517 c -0.0639,0.007 -0.11493,0.031 -0.15698,0.0633 -9.97312,7.64054 -17.88935,18.66092 -21.64882,30.13757 -3.24469,9.90508 -5.61479,19.46388 -7.04275,28.00023 l 18.10402,21.80029 c 16.74682,-10.36627 40.50291,-25.13666 53.49956,-33.26644 l -33.29399,-40.08887 c -6.93728,-5.44323 -8.84485,-6.7205 -9.46104,-6.64613 z m 70.85717,84.29816 a 128.49131,178.3028 0 0 1 -0.66654,1.13753 128.49131,178.3028 0 0 0 0.66654,-1.13753 z m -0.66654,1.13753 a 128.49131,178.3028 0 0 1 -0.65552,1.10172 128.49131,178.3028 0 0 0 0.46823,-0.77948 128.49131,178.3028 0 0 0 0.18729,-0.32224 z m -1.31655,2.19517 a 128.49131,178.3028 0 0 1 -0.66655,1.08795 128.49131,178.3028 0 0 0 0.0551,-0.0853 128.49131,178.3028 0 0 0 0.43794,-0.71337 128.49131,178.3028 0 0 0 0.17352,-0.2892 z m -0.66655,1.08795 a 128.49131,178.3028 0 0 1 -0.67205,1.07969 128.49131,178.3028 0 0 0 0.28369,-0.45172 128.49131,178.3028 0 0 0 0.38836,-0.62797 z m -0.67205,1.07969 a 128.49131,178.3028 0 0 1 -0.6087,0.96125 128.49131,178.3028 0 0 0 0.44896,-0.7051 128.49131,178.3028 0 0 0 0.15974,-0.25615 z m -2.09327,3.24731 a 128.49131,178.3028 0 0 1 -0.66378,0.99706 128.49131,178.3028 0 0 0 0.33327,-0.49577 128.49131,178.3028 0 0 0 0.33051,-0.50129 z m -0.66378,0.99706 a 128.49131,178.3028 0 0 1 -1.41296,2.07675 128.49131,178.3028 0 0 0 0.35805,-0.51781 128.49131,178.3028 0 0 0 0.46548,-0.68031 128.49131,178.3028 0 0 0 0.46273,-0.68583 128.49131,178.3028 0 0 0 0.12664,-0.1928 z m -2.12907,3.10135 a 128.49131,178.3028 0 0 1 -1.29453,1.81233 128.49131,178.3028 0 0 0 0.43518,-0.60043 128.49131,178.3028 0 0 0 0.044,-0.0606 128.49131,178.3028 0 0 0 0.0385,-0.0551 128.49131,178.3028 0 0 0 0.43793,-0.61422 128.49131,178.3028 0 0 0 0.33879,-0.482 z m -4.03231,5.48381 a 128.49131,178.3028 0 0 1 -1.47355,1.88669 128.49131,178.3028 0 0 0 0.23963,-0.30021 128.49131,178.3028 0 0 0 0.0551,-0.0688 128.49131,178.3028 0 0 0 0.1873,-0.23964 128.49131,178.3028 0 0 0 0.31123,-0.39662 128.49131,178.3028 0 0 0 0.18729,-0.23962 128.49131,178.3028 0 0 0 0.30848,-0.39937 128.49131,178.3028 0 0 0 0.18454,-0.24238 z m -1.51486,1.93903 a 128.49131,178.3028 0 0 1 -0.47925,0.6032 128.49131,178.3028 0 0 0 0.31398,-0.39112 128.49131,178.3028 0 0 0 0.16527,-0.21208 z m -0.47925,0.6032 h -0.003 a 128.49131,178.3028 0 0 1 -0.12113,0.15423 128.49131,178.3028 0 0 0 0.12395,-0.15423 z m -0.66929,0.82629 a 128.49131,178.3028 0 0 1 -0.0991,0.12396 128.49131,178.3028 0 0 0 0.0743,-0.0881 128.49131,178.3028 0 0 0 0.0248,-0.0358 z m -2.43757,2.92506 a 128.49131,178.3028 0 0 1 -0.78772,0.91443 128.49131,178.3028 0 0 0 0.11846,-0.13214 128.49131,178.3028 0 0 0 0.51781,-0.60318 128.49131,178.3028 0 0 0 0.15148,-0.17904 z m -0.99705,1.15405 a 128.49131,178.3028 0 0 1 -0.71887,0.81803 128.49131,178.3028 0 0 0 0.52332,-0.59217 128.49131,178.3028 0 0 0 0.19555,-0.22586 z m -1.80957,2.03819 a 128.49131,178.3028 0 0 1 -0.80977,0.88413 128.49131,178.3028 0 0 0 0.31675,-0.34154 128.49131,178.3028 0 0 0 0.49302,-0.54259 z m -1.40746,1.52863 a 128.49131,178.3028 0 0 1 -1.63604,1.72695 128.49131,178.3028 0 0 0 0.0688,-0.0688 128.49131,178.3028 0 0 0 0.33603,-0.34978 128.49131,178.3028 0 0 0 0.0633,-0.0661 128.49131,178.3028 0 0 0 0.43243,-0.45447 128.49131,178.3028 0 0 0 0.044,-0.0468 128.49131,178.3028 0 0 0 0.20382,-0.21759 128.49131,178.3028 0 0 0 0.33327,-0.3553 128.49131,178.3028 0 0 0 0.15424,-0.16801 z m -2.25301,2.36319 a 128.49131,178.3028 0 0 1 -0.8318,0.84282 128.49131,178.3028 0 0 0 0.22034,-0.22034 128.49131,178.3028 0 0 0 0.20933,-0.20933 128.49131,178.3028 0 0 0 0.33877,-0.34429 128.49131,178.3028 0 0 0 0.0633,-0.0688 z m -2.05195,2.06022 a 128.49131,178.3028 0 0 1 -0.6693,0.65277 128.49131,178.3028 0 0 0 0.31675,-0.30573 128.49131,178.3028 0 0 0 0.14597,-0.14046 128.49131,178.3028 0 0 0 0.20658,-0.20656 z m -0.6693,0.65277 a 128.49131,178.3028 0 0 1 -0.84557,0.81252 128.49131,178.3028 0 0 0 0.19555,-0.18454 128.49131,178.3028 0 0 0 0.55637,-0.53433 128.49131,178.3028 0 0 0 0.0936,-0.0936 z m -0.84557,0.81252 a 128.49131,178.3028 0 0 1 -0.85109,0.80425 128.49131,178.3028 0 0 0 0.14046,-0.12946 128.49131,178.3028 0 0 0 0.3498,-0.32775 128.49131,178.3028 0 0 0 0.36081,-0.34706 z m -2.55874,2.37972 a 128.49131,178.3028 0 0 1 -0.13496,0.12113 128.49131,178.3028 0 0 0 0.0798,-0.0688 128.49131,178.3028 0 0 0 0.0551,-0.0523 z m -0.62523,0.56188 a 128.49131,178.3028 0 0 1 -0.39938,0.3553 128.49131,178.3028 0 0 0 0.0468,-0.0385 128.49131,178.3028 0 0 0 0.35255,-0.31675 z m -1.82335,1.59749 a 128.49131,178.3028 0 0 1 -0.87588,0.74917 128.49131,178.3028 0 0 0 0.34154,-0.28644 128.49131,178.3028 0 0 0 0.0688,-0.0578 128.49131,178.3028 0 0 0 0.033,-0.0303 128.49131,178.3028 0 0 0 0.43242,-0.37459 z m -1.4047,1.19537 a 128.49131,178.3028 0 0 1 -0.34429,0.28644 128.49131,178.3028 0 0 0 0.12678,-0.10196 128.49131,178.3028 0 0 0 0.21758,-0.18454 z m -1.38541,1.14304 a 128.49131,178.3028 0 0 1 -0.58391,0.47098 128.49131,178.3028 0 0 0 0.008,-0.003 128.49131,178.3028 0 0 0 0.57564,-0.46823 z m -1.53965,1.22841 a 128.49131,178.3028 0 0 1 -0.22311,0.17628 128.49131,178.3028 0 0 0 0.22311,-0.17353 z m -2.96364,2.26679 a 128.49131,178.3028 0 0 1 -0.29745,0.21759 v 0.003 a 128.49131,178.3028 0 0 0 0.29745,-0.22034 z" />
      <path
         id="brillo2"
         style="display:inline;opacity:0.357629;fill:#ffffff;fill-opacity:1;stroke:none;stroke-width:5.22327;stroke-miterlimit:4;stroke-dasharray:none;stroke-opacity:1;stop-color:#000000"
         d="m 80.834937,66.475762 -26.038712,39.009808 5.867254,5.66376 c 10.64069,10.26827 21.273337,18.52216 29.951953,23.25248 2.396915,1.30644 4.553541,2.37751 4.792421,2.38187 0.238867,0.004 1.918922,-2.28872 3.733231,-5.09766 5.648706,-8.74536 10.800656,-17.02491 15.363386,-24.6743 z M 54.986669,107.8622 c -0.05307,0.053 1.47345,10.76218 3.391477,24.08992 l 42.002124,50.57474 c 2.98952,-3.46447 5.26984,-6.16094 5.26984,-6.30032 0,-0.23971 -1.27922,-5.0333 -2.84362,-10.65445 -1.5644,-5.62121 -3.824891,-14.09722 -5.024608,-18.83574 L 95.5983,138.1194 93.299914,137.10718 c -8.321832,-3.67055 -20.517971,-12.78204 -33.42691,-24.96649 -2.592638,-2.44705 -4.793063,-4.37175 -4.886335,-4.27849 z m 60.556121,0.40176 c -4.60893,7.70598 -9.81862,16.04638 -15.621673,24.98214 l -3.167112,4.8733 2.311423,8.95349 c 3.116372,12.07493 7.625622,28.25132 8.016922,28.75972 0.17471,0.22698 0.31484,0.69259 0.31045,1.0331 -0.0107,1.03976 3.14107,11.31843 6.66817,22.13329 l 28.24839,34.01391 c 1.13678,-6.33459 2.83263,-13.38414 5.082,-21.0663 4.18732,-14.30124 9.7295,-23.05725 20.66192,-32.63643 l 2.55665,-2.23837 0.22696,-2.23055 -27.30921,-32.88167 -0.0107,0.90788 -0.026,2.18618 -0.026,2.1862 -0.0235,2.1862 -0.026,2.1862 -0.026,2.1862 -0.0235,2.1862 -0.026,2.1862 -0.026,2.18619 -0.0235,2.1862 c 0,0 -0.67544,1.08266 -2.14446,1.08266 -1.6222,0 -2.23054,-1.08266 -2.23054,-1.08266 l 0.29741,-25.78044 -2.76797,-3.33147 v 29.17973 c 0,0 -0.65206,1.08528 -2.36098,1.08528 -1.54753,1e-5 -2.24621,-1.08528 -2.24621,-1.08528 v -2.18618 -2.1862 -2.1862 -2.1862 -2.1862 -2.1862 -2.1862 -2.18619 -2.18619 -2.1862 -2.1862 -2.1862 -2.1862 -2.1862 -2.1862 -1.93314 l -0.20871,-0.25306 h -2.47837 -2.6871 -2.68449 -2.68709 c 0,0 -1.48496,-0.0724 -1.56791,-2.12879 -0.0831,-2.05637 1.56791,-2.48101 1.56791,-2.48101 h 6.7073 z m 56.00631,67.4356 -0.13826,1.36703 3.80888,3.05233 z m -65.47376,2.53578 c -0.0712,0 -2.15004,2.29597 -4.84719,5.31157 l 10.6701,12.84848 c -1.38871,-4.31928 -2.75912,-8.69979 -4.07238,-13.05457 -0.84706,-2.80898 -1.6348,-5.10548 -1.75053,-5.10548 z m 64.20586,0.42784 c -0.0605,0.007 -0.10886,0.0294 -0.14869,0.06 -9.44637,7.237 -16.94449,17.67531 -20.5054,28.5458 -3.07331,9.38193 -5.31823,18.43586 -6.67077,26.52135 l 17.14783,20.64887 c 15.8623,-9.81876 38.36366,-23.80902 50.67387,-31.50942 l -31.5355,-37.9715 c -6.57088,-5.15573 -8.37769,-6.36555 -8.96134,-6.2951 z"
         sodipodi:nodetypes="cccscscccccsscccccccccsccccccccccccccccccsccccsccccccccccccccccccccccccccccccsccssccsccccc" />
      <path
         style="display:inline;fill:url(#linearGradient1347);fill-opacity:1;stroke:none;stroke-width:1.55989;stroke-miterlimit:4;stroke-dasharray:none;stroke-opacity:1;stop-color:#000000"
         d="m 69.55615,207.90235 c -0.343105,-1.02041 -14.737624,-99.87004 -14.56783,-100.03984 0.09325,-0.0932 2.29085,1.83254 4.883445,4.27962 12.90896,12.18445 25.106141,21.29315 33.428002,24.9637 l 2.300096,1.01448 2.181257,8.61563 c 1.199717,4.73859 3.46129,13.21476 5.0257,18.83596 1.56445,5.62116 2.84444,10.41643 2.84444,10.65615 0,0.42416 -20.336365,23.66618 -21.498105,24.56976 -0.320347,0.24914 -3.694756,2.07138 -7.498706,4.0494 -4.828828,2.51095 -6.9712,3.43304 -7.098299,3.05514 z"
         id="path955" />
      <path
         style="display:inline;fill:url(#radialGradient1317);fill-opacity:1;stroke:none;stroke-width:2.20601;stroke-miterlimit:4;stroke-dasharray:none;stroke-opacity:1;stop-color:#000000"
         d="m 138.01923,55.219103 c -0.66658,-0.844262 -6.47226,-11.02088 -9.90932,-17.369813 -4.3067,-7.955283 -9.03482,-19.241733 -10.28173,-24.543275 l -0.35251,-1.498774 19.01325,-0.727918 c 10.4573,-0.400344 19.07806,-0.645176 19.15726,-0.544082 0.0793,0.10118 -1.3371,6.881479 -3.14733,15.067539 l -3.29136,14.88369 -3.73203,5.544915 c -6.27266,9.319615 -6.81979,9.993817 -7.45623,9.187718 z"
         id="path957" />
      <path
         style="display:inline;fill:url(#linearGradient1309);fill-opacity:1;stroke:none;stroke-width:2.20601;stroke-miterlimit:4;stroke-dasharray:none;stroke-opacity:1;stop-color:#000000"
         d="m 174.07377,114.20003 c -7.18027,-18.786336 -16.9854,-39.668505 -22.69968,-48.343871 -3.29446,-5.001629 -8.21787,-9.902309 -9.94824,-9.902309 -0.96291,0 -0.27899,-1.306967 3.91479,-7.481294 l 5.08152,-7.481332 3.1761,-14.709693 c 1.74686,-8.09035 3.37666,-14.638938 3.62179,-14.552404 0.64946,0.229186 65.28596,75.812032 65.28596,76.342271 0,0.46496 -43.73477,31.883682 -45.12414,32.416832 -0.55792,0.21401 -1.52676,-1.62752 -3.3081,-6.2882 z"
         id="path959" />
      <path
         style="display:inline;fill:url(#linearGradient1291);fill-opacity:1;stroke:none;stroke-width:2.20601;stroke-miterlimit:4;stroke-dasharray:none;stroke-opacity:1;stop-color:#000000"
         d="m 78.471471,215.35584 c -3.939523,-2.92152 -7.115595,-5.57448 -7.057918,-5.89551 0.0902,-0.50174 12.718769,-7.56874 12.786118,-7.15512 0.118358,0.72721 1.561557,18.25899 1.506699,18.30371 -0.03975,0.0323 -3.295355,-2.33157 -7.234899,-5.25308 z"
         id="path961" />
      <path
         style="display:inline;fill:url(#linearGradient1283);fill-opacity:1;stroke:none;stroke-width:2.20601;stroke-miterlimit:4;stroke-dasharray:none;stroke-opacity:1;stop-color:#000000"
         d="M 112.77515,240.63631 C 99.773801,231.01558 88.664365,222.82309 88.087525,222.43077 87.208439,221.83292 86.901479,220.08256 86.190419,211.61319 L 85.342062,201.5089 95.602855,189.87132 c 5.643445,-6.40067 10.355385,-11.63758 10.471005,-11.63758 0.11567,0 0.9033,2.2982 1.75039,5.10718 5.73235,19.0084 12.5082,38.61653 17.4972,50.63376 2.52542,6.08309 8.31981,17.83647 10.48177,21.26123 1.57695,2.49805 1.75031,2.98194 1.0485,2.92697 -0.24077,-0.0196 -11.07521,-7.9058 -24.07657,-17.52657 z"
         id="path963" />
      <path
         style="display:inline;fill:url(#linearGradient1275);fill-opacity:1;stroke:none;stroke-width:2.20601;stroke-miterlimit:4;stroke-dasharray:none;stroke-opacity:1;stop-color:#000000"
         d="M 90.615061,134.40107 C 81.936401,129.67076 71.30447,121.41666 60.6638,111.14839 l -5.868707,-5.66329 30.855567,-46.224098 30.8556,-46.224085 0.75181,2.937637 c 1.73976,6.798088 8.20914,20.392299 16.24823,34.142555 5.09407,8.713011 5.03244,8.056669 1.61629,17.21841 -4.86917,13.058603 -17.86952,36.308321 -35.982108,64.350141 -1.814335,2.80894 -3.494243,5.10347 -3.73311,5.09894 -0.238866,-0.004 -2.395413,-1.07709 -4.792311,-2.38353 z"
         id="path965" />
      <path
         style="display:inline;fill:url(#linearGradient1301);fill-opacity:1;stroke:none;stroke-width:2.20601;stroke-miterlimit:4;stroke-dasharray:none;stroke-opacity:1;stop-color:#000000"
         d="m 195.61829,196.45131 -24.20846,-19.38492 2.75716,-26.84906 c 1.51644,-14.76697 2.96658,-27.17116 3.22252,-27.56489 0.25595,-0.39373 10.57753,-7.92616 22.93684,-16.7388 l 22.47149,-16.022974 0.16642,4.189806 c 0.18256,4.596546 -2.64943,121.267578 -2.95096,121.569088 -0.10258,0.10259 -11.08041,-8.53657 -24.39508,-19.19825 z"
         id="path967" />
      <path
         style="display:inline;fill:#0079c1;fill-opacity:0.984314;stroke:none;stroke-width:1.55989;stroke-miterlimit:4;stroke-dasharray:none;stroke-opacity:1;stop-color:#000000"
         d="m 143.62229,262.46068 c -4.39643,-8.61773 -1.98182,-30.81194 6.00465,-55.19249 3.56091,-10.87048 11.05929,-21.30908 20.50564,-28.5461 0.63723,-0.48821 3.3987,1.59741 25.09949,18.95639 19.78221,15.82426 24.28107,19.60192 23.84083,20.01891 -0.41316,0.39137 -56.63236,35.3665 -72.04176,44.81867 l -2.57484,1.5794 z"
         id="path969" />
      <path
         id="central"
         style="display:inline;opacity:1;fill:url(#radialGradient1267);fill-opacity:1;stroke:none;stroke-width:1.55989;stroke-miterlimit:4;stroke-dasharray:none;stroke-opacity:1;stop-color:#000000"
         d="m 140.97637,57.241312 c -0.18714,-0.01763 -0.36567,-0.01322 -0.54127,0.01322 -0.72365,0.107138 -1.01708,0.741696 -1.77664,3.843319 -3.17576,12.968144 -16.8772,38.488215 -38.736154,72.147629 l -3.167366,4.87406 2.310128,8.95307 c 3.116372,12.07495 7.626852,28.25431 8.018122,28.76271 0.17468,0.22698 0.31517,0.69025 0.31079,1.03075 -0.0194,1.728 8.67276,28.92163 13.36354,41.80771 6.75842,18.56601 14.24217,34.27043 19.4911,40.90125 1.42053,1.79449 1.80349,1.49673 1.11104,-0.86241 -0.25382,-0.86475 -0.56712,-3.79984 -0.69665,-6.52378 -0.46446,-9.77319 1.83629,-23.53252 6.72838,-40.24088 4.18732,-14.30124 9.73185,-23.05789 20.66429,-32.6371 l 2.55359,-2.23761 2.78406,-27.32534 2.78667,-27.32536 -3.02752,-7.75655 C 162.60079,87.622959 152.9695,68.433589 146.30884,61.185949 c -2.39719,-2.608418 -4.02253,-3.821147 -5.33247,-3.944319 z m -0.5102,65.711878 h 1.09292 2.18581 10.20395 c 0,0 1.56052,0.42471 1.45809,2.48106 -0.10232,2.05637 -1.50988,2.12885 -1.50988,2.12885 h -2.55099 -2.55099 -2.55098 -2.55099 l -0.0234,2.18582 -0.0259,2.18581 -0.0259,2.18583 -0.0259,2.18582 -0.0234,2.18841 -0.0259,2.18582 -0.0259,2.18582 -0.0234,2.18582 -0.0259,2.18583 -0.0259,2.18582 -0.0259,2.18841 -0.0234,2.18582 -0.0259,2.18581 -0.0259,2.18583 -0.0259,2.18582 -0.0234,2.18841 c 0,0 -0.67536,1.08256 -2.14439,1.08256 -1.62219,0 -2.22983,-1.08256 -2.22983,-1.08256 l 0.40142,-34.9809 0.0284,-2.30495 0.0134,-1.15248 c 0.004,-0.38416 0.0188,-0.60631 0.27971,-0.87796 0.26083,-0.27149 0.46169,-0.27452 0.82614,-0.27452 z m -19.37456,0.0673 h 10.74782 2.30236 1.15248 c 0.38394,0 0.59352,0.003 0.86501,0.27452 0.27159,0.27165 0.28746,0.4938 0.28746,0.87796 v 1.15248 2.30495 34.9809 c 0,0 -0.65301,1.08256 -2.36193,1.08256 -1.54752,0 -2.24538,-1.08256 -2.24538,-1.08256 v -2.18583 -2.18581 -2.18842 -2.18581 -2.18582 -2.18583 -2.18583 -2.1884 -2.18581 -2.18583 -2.18582 -2.18583 -2.18581 -2.1884 -2.18583 -2.18582 h -2.68825 -2.68565 -2.68825 -2.68567 c 0,0 -1.48384,-0.0725 -1.56685,-2.12885 -0.0829,-2.05635 1.56685,-2.48106 1.56685,-2.48106 z"
         inkscape:label="central" />
      <path
         id="brillo1"
         style="display:inline;opacity:0.357629;fill:url(#linearGradient1259);fill-opacity:1;stroke:none;stroke-width:5.22327;stroke-miterlimit:4;stroke-dasharray:none;stroke-opacity:1;stop-color:#000000"
         d="m 104.11864,31.595046 -9.750538,14.605483 32.422758,39.038184 c 3.46662,-6.604081 6.13424,-12.272048 7.90765,-16.824152 z m 31.65084,38.108291 c -1.91127,4.754501 -4.58816,10.399636 -7.93586,16.791439 l 46.32286,55.775434 2.02348,-19.84862 -2.99061,-7.6616 z m 39.56745,47.640993 c 1.00498,2.3422 1.63677,3.30063 2.04494,3.14407 0.0446,-0.0175 0.248,-0.15001 0.37581,-0.22792 z m 3.46912,4.17669 c -0.80766,0.61441 -1.36453,1.05236 -1.41632,1.13193 -0.21292,0.32763 -1.2624,9.12375 -2.47939,20.5246 l 45.6875,55.0092 c 0.19981,-7.17915 0.42869,-16.00482 0.66924,-25.53983 z"
         sodipodi:nodetypes="ccccccccccccccccccccc" />
      <path
         id="t_izquierda"
         style="fill:url(#linearGradient1333);fill-opacity:1;stroke:none;stroke-width:5.0242;stroke-miterlimit:4;stroke-dasharray:none;stroke-opacity:0.984314;paint-order:stroke fill markers;stop-color:#000000"
         d="m 121.09063,123.02153 c 0,0 -1.64969,0.42577 -1.56666,2.48213 0.0829,2.05636 1.56666,2.12777 1.56666,2.12777 h 2.68695 2.68695 2.68696 2.68696 v 2.18629 2.18632 2.1863 2.1863 2.18632 2.1863 2.18632 2.1863 2.1863 2.18631 2.18631 2.18629 2.18632 2.1863 2.18632 2.1863 c 0,0 0.69699,1.08318 2.24452,1.08318 1.70892,0 2.36279,-1.08318 2.36279,-1.08318 v -34.9809 -2.30496 -1.15247 c 0,-0.38415 -0.0146,-0.60631 -0.28617,-0.87795 -0.27149,-0.27149 -0.48171,-0.27452 -0.86566,-0.27452 h -1.15182 -2.30366 z"
         sodipodi:nodetypes="czcccccccccccccccccccccsccssssscc"
         inkscape:label="t_izquierda" />
      <path
         id="path979"
         style="fill:#0179c0;fill-opacity:0.988235;stroke:none;stroke-width:4.89507;stroke-miterlimit:4;stroke-dasharray:none;stroke-opacity:0.984314;paint-order:stroke fill markers;stop-color:#000000"
         d="m 153.94857,122.95319 c 0,0 1.56108,0.42578 1.45863,2.48213 -0.10231,2.05637 -1.51163,2.12778 -1.51163,2.12778 h -2.55061 -2.55061 -2.55063 -2.55061 l -0.0252,2.1863 -0.0252,2.18631 -0.0252,2.18631 -0.0252,2.1863 -0.0252,2.18631 -0.0252,2.1863 -0.0252,2.18632 -0.0252,2.1863 -0.0252,2.1863 -0.0252,2.18631 -0.0252,2.18631 -0.0252,2.1863 -0.0252,2.18631 -0.0252,2.1863 -0.0252,2.18632 -0.0252,2.1863 c 0,0 -0.67407,1.08317 -2.14308,1.08317 -1.62221,0 -2.23045,-1.08317 -2.23045,-1.08317 l 0.40217,-34.9809 0.0265,-2.30495 0.0134,-1.15248 c 0.004,-0.38416 0.0208,-0.60631 0.28175,-0.87796 0.26082,-0.27149 0.46042,-0.27452 0.82487,-0.27452 h 1.09339 2.18676 z"
         sodipodi:nodetypes="czcccccccccccccccccccccsccssssscc" />
      <path
         id="t_derecha"
         style="fill:url(#linearGradient1325);fill-opacity:1;stroke:none;stroke-width:4.89507;stroke-miterlimit:4;stroke-dasharray:none;stroke-opacity:0.984314;paint-order:stroke fill markers;stop-color:#000000"
         d="m 153.94857,122.95319 c 0,0 1.56108,0.42578 1.45863,2.48213 -0.10231,2.05637 -1.51163,2.12778 -1.51163,2.12778 h -2.55061 -2.55061 -2.55063 -2.55061 l -0.0252,2.1863 -0.0252,2.18631 -0.0252,2.18631 -0.0252,2.1863 -0.0252,2.18631 -0.0252,2.1863 -0.0252,2.18632 -0.0252,2.1863 -0.0252,2.1863 -0.0252,2.18631 -0.0252,2.18631 -0.0252,2.1863 -0.0252,2.18631 -0.0252,2.1863 -0.0252,2.18632 -0.0252,2.1863 c 0,0 -0.67407,1.08317 -2.14308,1.08317 -1.62221,0 -2.23045,-1.08317 -2.23045,-1.08317 l 0.40217,-34.9809 0.0265,-2.30495 0.0134,-1.15248 c 0.004,-0.38416 0.0208,-0.60631 0.28175,-0.87796 0.26082,-0.27149 0.46042,-0.27452 0.82487,-0.27452 h 1.09339 2.18676 z"
         sodipodi:nodetypes="czcccccccccccccccccccccsccssssscc"
         inkscape:label="t_derecha" />
      <path
         id="brillo"
         style="opacity:0.519938;fill:url(#linearGradient1243);fill-opacity:1;fill-rule:evenodd;stroke-width:0.944;stop-color:#000000"
         d="m 81.679688,65.208984 -26.884766,40.275396 5.86914,5.66406 c 10.640675,10.26827 21.272512,18.52164 29.951172,23.25195 2.396898,1.30644 4.554103,2.38077 4.792969,2.38477 0.238867,0.005 1.918087,-2.29067 3.732422,-5.09961 5.765165,-8.9256 10.942275,-17.28982 15.574215,-25.07032 z M 54.988281,107.86328 c -0.05637,0.0564 1.668592,12.13518 3.775391,26.75195 l 39.84375,49.94336 c 3.775688,-4.35268 7.042968,-8.16672 7.042968,-8.33007 0,-0.23972 -1.2793,-5.03509 -2.84375,-10.65625 -1.56441,-5.6212 -3.825673,-14.09735 -5.02539,-18.83594 l -2.181641,-8.61524 -2.300781,-1.01562 c -8.321861,-3.67055 -20.518774,-12.77844 -33.427734,-24.96289 -2.592595,-2.44708 -4.789563,-4.3725 -4.882813,-4.2793 z m 60.761719,0.0508 c -4.65982,7.8028 -9.93688,16.26043 -15.828125,25.33203 l -3.166016,4.87305 2.308594,8.95313 c 3.116377,12.07495 7.628257,28.25527 8.019527,28.76367 0.17468,0.22698 0.31493,0.68879 0.31055,1.02929 -0.0147,1.31242 4.99108,17.29398 9.45703,30.56055 l 24.6211,30.86328 c 1.04395,-7.60759 3.02271,-16.45339 5.91796,-26.34179 4.18732,-14.30124 9.73358,-23.05751 20.66602,-32.63672 l 2.55274,-2.23633 0.0352,-0.35156 -27.125,-34 -0.002,0.14453 -0.0234,2.18554 -0.0234,1.85743 -0.004,0.30273 v 0.0273 l -0.0254,2.18555 -0.0254,2.1875 -0.0234,2.18555 -0.0254,2.18555 -0.0234,1.85742 -0.004,0.30273 v 0.0273 l -0.0254,2.18554 v 0.0234 l -0.0234,2.16406 c 0,0 -0.0426,0.0665 -0.12891,0.16797 -0.25601,0.30299 -0.90916,0.91406 -2.01563,0.91406 -1.62221,0 -2.23046,-1.08203 -2.23046,-1.08203 l 0.29101,-25.22851 -2.75976,-3.45899 v 28.75391 l -0.002,0.002 c 0,0 -0.27714,0.44616 -0.92578,0.76563 -0.10731,0.0529 -0.21918,0.10328 -0.34765,0.14648 -0.30167,0.10144 -0.66262,0.16992 -1.08985,0.16992 -1.54753,0 -2.24414,-1.08203 -2.24414,-1.08203 v -2.1875 -2.18555 -2.1875 -2.18554 -2.18555 -2.1875 -2.18555 -2.1875 -2.18554 -2.18555 -2.1875 -2.18555 -2.1875 -2.18554 -2.18555 -1.73828 l -0.35742,-0.44922 h -2.32813 -2.6875 -2.6875 -2.6875 c 0,0 -1.4835,-0.0706 -1.5664,-2.12695 -0.083,-2.05636 1.5664,-2.48243 1.5664,-2.48243 l 0.002,-0.002 h 6.70898 z m -9.67578,70.32032 c -0.0854,0 -3.02716,3.26933 -6.652345,7.34374 l 15.150395,18.99024 c -2.29632,-6.87151 -4.59612,-14.09078 -6.74805,-21.22656 -0.84709,-2.80898 -1.63433,-5.10742 -1.75,-5.10742 z m 64.19531,0.43554 c -0.0559,0.006 -0.10048,0.025 -0.13672,0.0527 -9.44635,7.23702 -16.94495,17.67444 -20.50586,28.54492 -3.77866,11.53525 -6.29247,22.56012 -7.44531,31.91015 l 14.07227,17.63868 c 14.77282,-9.13035 38.31759,-23.76036 52.34179,-32.52344 L 174.00781,180.9375 c -8.8e-4,-6.5e-4 -0.001,-0.001 -0.002,-0.002 -2.40611,-1.78233 -3.3452,-2.31031 -3.73633,-2.26563 z"
         inkscape:label="#brillo" />
    </g>
  </g>
</svg>
