<?xml version="1.0" encoding="UTF-8" standalone="no"?>
<svg
   xmlns:dc="http://purl.org/dc/elements/1.1/"
   xmlns:cc="http://creativecommons.org/ns#"
   xmlns:rdf="http://www.w3.org/1999/02/22-rdf-syntax-ns#"
   xmlns:svg="http://www.w3.org/2000/svg"
   xmlns="http://www.w3.org/2000/svg"
   xmlns:xlink="http://www.w3.org/1999/xlink"
   xmlns:sodipodi="http://sodipodi.sourceforge.net/DTD/sodipodi-0.dtd"
   xmlns:inkscape="http://www.inkscape.org/namespaces/inkscape"
   width="100"
   height="150"
   viewBox="0 0 26.458333 39.687502"
   version="1.1"
   id="svg1060"
   inkscape:version="1.0.2 (1.0.2+r75+1)"
   sodipodi:docname="11.svg"
   inkscape:export-filename="/home/julio899/git/doc-topacio/docs/_media/logo_100x150.png"
   inkscape:export-xdpi="96"
   inkscape:export-ydpi="96">
  <defs
     id="defs1054">
    <linearGradient
       inkscape:collect="always"
       id="linearGradient1339">
      <stop
         style="stop-color:#009edf;stop-opacity:0.82352942"
         offset="0"
         id="stop1335" />
      <stop
         style="stop-color:#006eb5;stop-opacity:0.98823529"
         offset="1"
         id="stop1337" />
    </linearGradient>
    <linearGradient
       inkscape:collect="always"
       id="linearGradient976">
      <stop
         style="stop-color:#00c2ff;stop-opacity:1"
         offset="0"
         id="stop972" />
      <stop
         style="stop-color:#0066ad;stop-opacity:0.56922005"
         offset="1"
         id="stop974" />
    </linearGradient>
    <linearGradient
       inkscape:collect="always"
       id="linearGradient1281">
      <stop
         style="stop-color:#0079c0;stop-opacity:1;"
         offset="0"
         id="stop1277" />
      <stop
         style="stop-color:#0079c0;stop-opacity:0;"
         offset="1"
         id="stop1279" />
    </linearGradient>
    <linearGradient
       inkscape:collect="always"
       id="linearGradient1255">
      <stop
         style="stop-color:#ffffff;stop-opacity:1;"
         offset="0"
         id="stop1251" />
      <stop
         style="stop-color:#ffffff;stop-opacity:0;"
         offset="1"
         id="stop1253" />
    </linearGradient>
    <linearGradient
       inkscape:collect="always"
       id="linearGradient1249">
      <stop
         style="stop-color:#f8fdff;stop-opacity:1"
         offset="0"
         id="stop1245" />
      <stop
         style="stop-color:#ffffff;stop-opacity:0.2218203"
         offset="1"
         id="stop1247" />
    </linearGradient>
    <linearGradient
       inkscape:collect="always"
       xlink:href="#linearGradient1339"
       id="linearGradient83"
       gradientUnits="userSpaceOnUse"
       x1="76.250809"
       y1="159.23947"
       x2="105.65126"
       y2="157.92157"
       gradientTransform="matrix(0.14794839,0,0,0.14794839,-7.448799,-0.75709813)" />
    <radialGradient
       inkscape:collect="always"
       xlink:href="#linearGradient976"
       id="radialGradient85"
       gradientUnits="userSpaceOnUse"
       gradientTransform="matrix(-0.05947049,-0.2525217,0.26436494,-0.06225964,12.15523,40.662836)"
       cx="136.56252"
       cy="32.990814"
       fx="136.56252"
       fy="32.990814"
       r="19.086842" />
    <linearGradient
       inkscape:collect="always"
       xlink:href="#linearGradient976"
       id="linearGradient87"
       gradientUnits="userSpaceOnUse"
       x1="196.50114"
       y1="60.076687"
       x2="148.27551"
       y2="108.93336"
       gradientTransform="matrix(0.14794839,0,0,0.14794839,-7.448799,-0.75709813)" />
    <linearGradient
       inkscape:collect="always"
       xlink:href="#linearGradient976"
       id="linearGradient89"
       gradientUnits="userSpaceOnUse"
       x1="71.412781"
       y1="211.4485"
       x2="85.707893"
       y2="211.4485"
       gradientTransform="matrix(0.14794839,0,0,0.14794839,-7.448799,-0.75709813)" />
    <linearGradient
       inkscape:collect="always"
       xlink:href="#linearGradient1281"
       id="linearGradient91"
       gradientUnits="userSpaceOnUse"
       x1="85.342064"
       y1="218.20032"
       x2="124.811"
       y2="129.46417"
       gradientTransform="matrix(0.14794839,0,0,0.14794839,-7.448799,-0.75709813)" />
    <linearGradient
       inkscape:collect="always"
       xlink:href="#linearGradient976"
       id="linearGradient93"
       gradientUnits="userSpaceOnUse"
       x1="54.795094"
       y1="74.910759"
       x2="142.25529"
       y2="88.780228"
       gradientTransform="matrix(0.14794839,0,0,0.14794839,-7.448799,-0.75709813)" />
    <linearGradient
       inkscape:collect="always"
       xlink:href="#linearGradient976"
       id="linearGradient95"
       gradientUnits="userSpaceOnUse"
       x1="225.76111"
       y1="129.75362"
       x2="161.68687"
       y2="153.95244"
       gradientTransform="matrix(0.14794839,0,0,0.14794839,-7.448799,-0.75709813)" />
    <radialGradient
       inkscape:collect="always"
       xlink:href="#linearGradient976"
       id="radialGradient97"
       gradientUnits="userSpaceOnUse"
       gradientTransform="matrix(0.41945685,-0.0222043,0.02003833,0.37853998,-47.686592,-34.386677)"
       cx="136.46747"
       cy="158.98128"
       fx="136.46747"
       fy="158.98128"
       r="39.712528" />
    <linearGradient
       inkscape:collect="always"
       xlink:href="#linearGradient1255"
       id="linearGradient99"
       gradientUnits="userSpaceOnUse"
       x1="98.341202"
       y1="67.604973"
       x2="281.87128"
       y2="78.433716"
       gradientTransform="matrix(0.14794839,0,0,0.14794839,-7.448799,-0.75709813)" />
    <linearGradient
       inkscape:collect="always"
       xlink:href="#linearGradient1339"
       id="linearGradient101"
       gradientUnits="userSpaceOnUse"
       x1="147.33884"
       y1="115.35369"
       x2="126.57124"
       y2="142.90428"
       gradientTransform="matrix(0.14794839,0,0,0.14794839,-7.448799,-0.75709813)" />
    <linearGradient
       inkscape:collect="always"
       xlink:href="#linearGradient976"
       id="linearGradient103"
       gradientUnits="userSpaceOnUse"
       x1="133.7664"
       y1="115.06841"
       x2="147.73085"
       y2="136.31444"
       gradientTransform="matrix(0.14794839,0,0,0.14794839,-7.448799,-0.75709813)" />
    <linearGradient
       inkscape:collect="always"
       xlink:href="#linearGradient1249"
       id="linearGradient105"
       gradientUnits="userSpaceOnUse"
       x1="58.98378"
       y1="45.042763"
       x2="170.40565"
       y2="265.74002"
       gradientTransform="matrix(0.14794839,0,0,0.14794839,-7.448799,-0.75709813)" />
  </defs>
  <sodipodi:namedview
     id="base"
     pagecolor="#ffffff"
     bordercolor="#666666"
     borderopacity="1.0"
     inkscape:pageopacity="0.0"
     inkscape:pageshadow="2"
     inkscape:zoom="1.4"
     inkscape:cx="55.816015"
     inkscape:cy="103.39978"
     inkscape:document-units="mm"
     inkscape:current-layer="layer1"
     inkscape:document-rotation="0"
     showgrid="false"
     units="px"
     inkscape:window-width="1360"
     inkscape:window-height="705"
     inkscape:window-x="0"
     inkscape:window-y="30"
     inkscape:window-maximized="1"
     inkscape:lockguides="false" />
  <metadata
     id="metadata1057">
    <rdf:RDF>
      <cc:Work
         rdf:about="">
        <dc:format>image/svg+xml</dc:format>
        <dc:type
           rdf:resource="http://purl.org/dc/dcmitype/StillImage" />
        <dc:title></dc:title>
      </cc:Work>
    </rdf:RDF>
  </metadata>
  <g
     inkscape:label="Capa 1"
     inkscape:groupmode="layer"
     id="layer1">
    <g
       id="g157">
      <path
         id="brillo2"
         style="display:inline;opacity:0.354053;mix-blend-mode:normal;fill:#ffffff;fill-opacity:1;stroke:none;stroke-width:0.772774;stroke-miterlimit:4;stroke-dasharray:none;stroke-opacity:1;stop-color:#000000"
         d="M 4.5105998,9.0778838 0.65821427,14.849322 1.526265,15.687266 c 1.574273,1.519174 3.147356,2.740324 4.4313433,3.440167 0.3546197,0.193286 0.673689,0.351749 0.7090309,0.352394 0.03534,5.92e-4 0.2839015,-0.338612 0.5523256,-0.75419 0.8357169,-1.293862 1.5979396,-2.518809 2.2729882,-3.650523 z M 0.68639015,15.200941 c -0.007852,0.0078 0.21799456,1.592247 0.50176355,3.564065 l 6.2141466,7.482451 c 0.4422947,-0.512563 0.7796644,-0.911501 0.7796644,-0.932122 0,-0.03547 -0.1892586,-0.744669 -0.420709,-1.576309 C 7.5298052,22.907377 7.1953692,21.653365 7.017873,20.952309 L 6.6948156,19.677445 6.3547731,19.527688 C 5.1235714,18.984636 3.3191723,17.636606 1.4093155,15.833936 1.0257389,15.471899 0.70018959,15.187143 0.68639015,15.200941 Z M 9.6455708,15.26038 C 8.963687,16.400468 8.1929217,17.634417 7.3343694,18.956448 l -0.4685691,0.720997 0.3419713,1.324654 c 0.4610622,1.786467 1.1281985,4.179737 1.1860907,4.254954 0.025848,0.03358 0.04658,0.102468 0.045931,0.152846 -0.00158,0.153831 0.4647162,1.674543 0.986545,3.274585 l 4.1793037,5.032303 c 0.168184,-0.937193 0.419083,-1.980162 0.751873,-3.116725 0.619508,-2.115846 1.439464,-3.411283 3.056898,-4.828508 l 0.378252,-0.331163 0.03358,-0.330006 -4.040354,-4.86479 -0.0016,0.134319 -0.0038,0.323442 -0.0038,0.323445 -0.0035,0.323444 -0.0038,0.323445 -0.0038,0.323445 -0.0035,0.323445 -0.0038,0.323444 -0.0038,0.323444 -0.0035,0.323445 c 0,0 -0.09993,0.160177 -0.31727,0.160177 -0.240001,0 -0.330004,-0.160177 -0.330004,-0.160177 l 0.044,-3.814175 -0.409517,-0.492886 v 4.317094 c 0,0 -0.09647,0.160566 -0.349303,0.160566 -0.228955,1e-6 -0.332323,-0.160566 -0.332323,-0.160566 V 22.977505 22.65406 22.330615 22.00717 21.683726 21.360281 21.036836 20.713393 20.389949 20.066505 19.74306 19.419615 19.09617 18.772726 18.449281 18.163276 l -0.03088,-0.03744 H 11.658832 11.26128 10.864114 10.466563 c 0,0 -0.219697,-0.01071 -0.23197,-0.314951 -0.01229,-0.304237 0.23197,-0.367062 0.23197,-0.367062 h 0.992334 z m 8.2860432,9.976989 -0.02045,0.20225 0.563517,0.451587 z m -9.6867372,0.375164 c -0.010534,0 -0.318095,0.339686 -0.717134,0.785839 l 1.5786241,1.900912 C 8.9009095,27.660253 8.6981596,27.012164 8.5038649,26.367881 8.3785437,25.952297 8.2619988,25.612533 8.2448768,25.612533 Z m 9.4991532,0.0633 c -0.0089,10e-4 -0.0161,0.0043 -0.022,0.0089 -1.397575,1.070702 -2.50691,2.615033 -3.033741,4.223305 -0.454691,1.388041 -0.786824,2.727556 -0.98693,3.923791 l 2.536994,3.054967 c 2.346802,-1.45267 5.675842,-3.522506 7.497118,-4.661768 L 19.069846,26.607182 C 18.097695,25.8444 17.83038,25.665409 17.74403,25.675832 Z"
         sodipodi:nodetypes="cccscscccccsscccccccccsccccccccccccccccccsccccsccccccccccccccccccccccccccccccsccssccsccccc" />
      <path
         style="display:inline;opacity:0.99;mix-blend-mode:normal;fill:url(#linearGradient83);fill-opacity:1;stroke:none;stroke-width:0.230783;stroke-miterlimit:4;stroke-dasharray:none;stroke-opacity:1;stop-color:#000000"
         d="M 2.8419214,30.00172 C 2.7911596,29.850752 0.66151366,15.226108 0.68663441,15.200987 c 0.0137962,-0.01379 0.33892759,0.271121 0.72249779,0.633162 1.9098599,1.80267 3.7144132,3.150288 4.9456191,3.69334 l 0.3402955,0.15009 0.3227135,1.274669 c 0.1774962,0.701067 0.5120923,1.955102 0.7435442,2.78675 0.2314579,0.831641 0.4208303,1.541094 0.4208303,1.57656 0,0.06275 -3.0087324,3.501373 -3.18061,3.635057 C 4.95413,28.987474 4.4548916,29.257072 3.8921033,29.549717 3.177686,29.921208 2.8607255,30.05763 2.8419214,30.00172 Z"
         id="path955" />
      <path
         style="display:inline;opacity:0.99;mix-blend-mode:normal;fill:url(#radialGradient85);fill-opacity:1;stroke:none;stroke-width:0.326376;stroke-miterlimit:4;stroke-dasharray:none;stroke-opacity:1;stop-color:#000000"
         d="M 12.970924,7.4124793 C 12.872304,7.2875721 12.013363,5.7819578 11.504856,4.8426434 10.867687,3.6656721 10.168169,1.99586 9.9836905,1.2115054 L 9.9315372,0.98976417 12.744517,0.88206987 c 1.547141,-0.0592303 2.822568,-0.0954528 2.834286,-0.0804961 0.01173,0.0149694 -0.197822,1.01810383 -0.465643,2.22921823 l -0.486951,2.2020179 -0.552148,0.8203613 c -0.92803,1.378822 -1.008977,1.4785691 -1.103137,1.3593081 z"
         id="path957" />
      <path
         style="display:inline;opacity:0.99;mix-blend-mode:normal;fill:url(#linearGradient87);fill-opacity:1;stroke:none;stroke-width:0.326376;stroke-miterlimit:4;stroke-dasharray:none;stroke-opacity:1;stop-color:#000000"
         d="m 18.305135,16.138612 c -1.062309,-2.779408 -2.512963,-5.868891 -3.358381,-7.1523974 -0.48741,-0.739983 -1.215821,-1.4650307 -1.471826,-1.4650307 -0.142461,0 -0.04128,-0.1933637 0.579187,-1.1068454 l 0.751802,-1.106851 0.469899,-2.1762754 c 0.258445,-1.1969543 0.499572,-2.16580734 0.535838,-2.15300477 0.09609,0.0339077 9.658953,11.21626767 9.658953,11.29471567 0,0.06879 -6.470489,4.71714 -6.676044,4.796019 -0.08254,0.03166 -0.225882,-0.240789 -0.489428,-0.93033 z"
         id="path959" />
      <path
         style="display:inline;opacity:0.99;mix-blend-mode:normal;fill:url(#linearGradient89);fill-opacity:1;stroke:none;stroke-width:0.326376;stroke-miterlimit:4;stroke-dasharray:none;stroke-opacity:1;stop-color:#000000"
         d="M 4.1609288,31.104452 C 3.5780827,30.672217 3.108188,30.279716 3.1167212,30.23222 c 0.013345,-0.07423 1.8817214,-1.119782 1.8916856,-1.058588 0.017511,0.10759 0.2310298,2.701388 0.2229137,2.708004 -0.00588,0.0048 -0.4875425,-0.344952 -1.0703917,-0.777184 z"
         id="path961" />
      <path
         style="display:inline;opacity:0.99;mix-blend-mode:normal;fill:url(#linearGradient91);fill-opacity:1;stroke:none;stroke-width:0.326376;stroke-miterlimit:4;stroke-dasharray:none;stroke-opacity:1;stop-color:#000000"
         d="M 9.2361029,34.844657 C 7.3125742,33.421285 5.6689511,32.209219 5.5836085,32.151176 5.4535491,32.062725 5.4081349,31.803762 5.3029347,30.550733 l -0.125513,-1.494914 1.5180678,-1.721761 c 0.8349386,-0.946969 1.5320625,-1.721761 1.5491683,-1.721761 0.017113,0 0.1336418,0.340015 0.2589674,0.755599 0.8480919,2.812262 1.8505678,5.713253 2.5886828,7.491183 0.373632,0.899983 1.230902,2.638877 1.550761,3.145565 0.233307,0.369582 0.258955,0.441173 0.155124,0.43304 -0.03562,-0.0029 -1.63856,-1.16965 -3.5620901,-2.593027 z"
         id="path963" />
      <path
         style="display:inline;opacity:0.99;mix-blend-mode:normal;fill:url(#linearGradient93);fill-opacity:1;stroke:none;stroke-width:0.326376;stroke-miterlimit:4;stroke-dasharray:none;stroke-opacity:1;stop-color:#000000"
         d="M 5.9575534,19.127324 C 4.6735596,18.427482 3.1005825,17.206301 1.5263125,15.687127 L 0.65804679,14.849253 5.2230782,8.0104717 9.7881146,1.1716928 9.8993437,1.6063114 c 0.2573943,1.0057662 1.2145293,3.0170078 2.4038993,5.0513361 0.75366,1.2890759 0.744542,1.1919712 0.239128,2.547436 -0.720386,1.9319995 -2.6437671,5.3717575 -5.3234953,9.5204995 -0.2684279,0.415578 -0.5169676,0.75505 -0.5523076,0.75438 -0.03534,-5.92e-4 -0.3543975,-0.159354 -0.7090147,-0.352639 z"
         id="path965" />
      <path
         style="display:inline;opacity:0.99;mix-blend-mode:normal;fill:url(#linearGradient95);fill-opacity:1;stroke:none;stroke-width:0.326376;stroke-miterlimit:4;stroke-dasharray:none;stroke-opacity:1;stop-color:#000000"
         d="m 21.492612,28.307557 -3.581603,-2.867968 0.407918,-3.972275 c 0.224355,-2.184749 0.4389,-4.019929 0.476766,-4.078181 0.03787,-0.05825 1.564929,-1.172663 3.393469,-2.476479 l 3.324621,-2.370573 0.02462,0.619875 c 0.02701,0.680052 -0.391979,17.941343 -0.436589,17.985951 -0.01518,0.01518 -1.639329,-1.262972 -3.609213,-2.84035 z"
         id="path967" />
      <path
         style="display:inline;opacity:0.99;mix-blend-mode:normal;fill:#0079c1;fill-opacity:0.984314;stroke:none;stroke-width:0.230783;stroke-miterlimit:4;stroke-dasharray:none;stroke-opacity:1;stop-color:#000000"
         d="m 13.799888,38.073537 c -0.650445,-1.274979 -0.293208,-4.558577 0.888378,-8.16564 0.526831,-1.60827 1.636204,-3.152644 3.033776,-4.22335 0.09428,-0.07223 0.502832,0.236335 3.713429,2.804568 2.926747,2.341174 3.592346,2.900072 3.527213,2.961765 -0.06113,0.0579 -8.378667,5.232417 -10.658463,6.63085 l -0.380943,0.23367 z"
         id="path969" />
      <path
         id="central"
         style="display:inline;opacity:0.99;mix-blend-mode:normal;fill:url(#radialGradient97);fill-opacity:1;stroke:none;stroke-width:0.230783;stroke-miterlimit:4;stroke-dasharray:none;stroke-opacity:1;stop-color:#000000"
         d="m 13.408428,7.7116618 c -0.02769,-0.00261 -0.0541,-0.00196 -0.08008,0.00196 -0.107063,0.015851 -0.150475,0.1097327 -0.262851,0.5686129 C 12.595648,10.200847 10.568542,13.9765 7.3345453,18.956356 l -0.4686067,0.721109 0.3417797,1.324593 c 0.4610622,1.786469 1.1283805,4.180179 1.1862683,4.255396 0.025844,0.03358 0.046629,0.102122 0.045981,0.152498 -0.00287,0.255655 1.2831209,4.278909 1.9771144,6.185384 0.999897,2.746811 2.107106,5.070254 2.883677,6.051274 0.210165,0.265492 0.266823,0.221438 0.164376,-0.127593 -0.03755,-0.127938 -0.0839,-0.56218 -0.103068,-0.965182 -0.06872,-1.445928 0.271676,-3.481599 0.995453,-5.953574 0.619507,-2.115845 1.439811,-3.411377 3.057248,-4.828606 l 0.3778,-0.331051 0.411897,-4.04274 0.412283,-4.042743 -0.447916,-1.147569 C 16.607726,12.206578 15.182792,9.3675412 14.197358,8.2952645 13.842698,7.9093533 13.602231,7.729932 13.408428,7.7117089 Z m -0.07548,9.7219662 h 0.161695 0.323388 1.509657 c 0,0 0.230877,0.06284 0.215723,0.367069 -0.01514,0.304237 -0.223385,0.31496 -0.223385,0.31496 H 14.942608 14.565194 14.18778 13.810365 l -0.0035,0.323389 -0.0038,0.323387 -0.0038,0.32339 -0.0038,0.323388 -0.0035,0.323772 -0.0038,0.323389 -0.0038,0.323388 -0.0035,0.323389 -0.0038,0.32339 -0.0038,0.323388 -0.0038,0.323772 -0.0035,0.323389 -0.0038,0.323387 -0.0038,0.32339 -0.0038,0.323388 -0.0035,0.323772 c 0,0 -0.09992,0.160163 -0.317259,0.160163 -0.240001,0 -0.3299,-0.160163 -0.3299,-0.160163 l 0.05939,-5.175368 0.0042,-0.341014 0.002,-0.170507 c 5.91e-4,-0.05684 0.0028,-0.0897 0.04138,-0.129893 0.03859,-0.04017 0.06831,-0.04062 0.122226,-0.04062 z m -2.866435,0.01 h 1.590122 0.340631 0.170507 c 0.0568,0 0.08781,4.44e-4 0.127977,0.04062 0.04018,0.04019 0.04253,0.07306 0.04253,0.129893 v 0.170507 0.341014 5.175368 c 0,0 -0.09661,0.160163 -0.349444,0.160163 -0.228953,0 -0.332201,-0.160163 -0.332201,-0.160163 v -0.32339 -0.323387 -0.323773 -0.323387 -0.323389 -0.32339 -0.32339 -0.32377 -0.323387 -0.32339 -0.323389 -0.32339 -0.323387 -0.32377 -0.32339 -0.323389 H 11.65891 11.261573 10.86385 10.46651 c 0,0 -0.219532,-0.01073 -0.231813,-0.31496 -0.01227,-0.304234 0.231813,-0.367069 0.231813,-0.367069 z"
         inkscape:label="central" />
      <path
         id="brillo1"
         style="display:inline;opacity:0.354053;mix-blend-mode:normal;fill:url(#linearGradient99);fill-opacity:1;stroke:none;stroke-width:0.772774;stroke-miterlimit:4;stroke-dasharray:none;stroke-opacity:1;stop-color:#000000"
         d="M 7.9553862,3.9173381 6.5128098,6.0781958 11.309705,11.853832 c 0.51288,-0.977063 0.907551,-1.81563 1.169924,-2.489106 z m 4.6826908,5.6380603 c -0.282769,0.7034206 -0.678811,1.5386096 -1.174098,2.4842666 l 6.853393,8.251885 0.29937,-2.936571 -0.442456,-1.133521 z m 5.853941,7.0484086 c 0.148685,0.346524 0.242157,0.488322 0.302545,0.46516 0.0066,-0.0026 0.03669,-0.02219 0.0556,-0.03372 z m 0.51325,0.617934 c -0.119492,0.0909 -0.20188,0.155695 -0.209542,0.167467 -0.0315,0.04847 -0.18677,1.349844 -0.366822,3.036582 l 6.759392,8.138522 c 0.02956,-1.062143 0.06342,-2.367887 0.09901,-3.778576 z"
         sodipodi:nodetypes="ccccccccccccccccccccc" />
      <path
         id="t_izquierda"
         style="opacity:0.99;mix-blend-mode:normal;fill:url(#linearGradient101);fill-opacity:1;stroke:none;stroke-width:0.743322;stroke-miterlimit:4;stroke-dasharray:none;stroke-opacity:0.984314;paint-order:stroke fill markers;stop-color:#000000"
         d="m 10.466365,17.443739 c 0,0 -0.244069,0.06299 -0.231785,0.367227 0.01227,0.304235 0.231785,0.3148 0.231785,0.3148 h 0.39753 0.39753 0.397531 0.397531 v 0.323459 0.323462 0.32346 0.323459 0.323463 0.323459 0.323463 0.323459 0.32346 0.323461 0.323461 0.323458 0.323463 0.323459 0.323463 0.323459 c 0,0 0.103119,0.160255 0.332074,0.160255 0.252832,0 0.349571,-0.160255 0.349571,-0.160255 v -5.175368 -0.341015 -0.170506 c 0,-0.05683 -0.0022,-0.0897 -0.04234,-0.129891 -0.04017,-0.04017 -0.07127,-0.04061 -0.128073,-0.04061 h -0.17041 -0.340823 z"
         sodipodi:nodetypes="czcccccccccccccccccccccsccssssscc"
         inkscape:label="t_izquierda" />
      <path
         id="path979"
         style="opacity:0.99;mix-blend-mode:normal;fill:#0179c0;fill-opacity:0.988235;stroke:none;stroke-width:0.724218;stroke-miterlimit:4;stroke-dasharray:none;stroke-opacity:0.984314;paint-order:stroke fill markers;stop-color:#000000"
         d="m 15.327644,17.433628 c 0,0 0.230959,0.06299 0.215802,0.367228 -0.01514,0.304236 -0.223643,0.314801 -0.223643,0.314801 h -0.377359 -0.377358 -0.377362 -0.377359 l -0.0037,0.32346 -0.0037,0.323461 -0.0037,0.323461 -0.0037,0.323459 -0.0037,0.323461 -0.0037,0.32346 -0.0037,0.323462 -0.0037,0.32346 -0.0037,0.32346 -0.0037,0.323461 -0.0037,0.323461 -0.0037,0.323459 -0.0037,0.323461 -0.0037,0.32346 -0.0037,0.323462 -0.0037,0.32346 c 0,0 -0.09973,0.160253 -0.317065,0.160253 -0.240003,0 -0.329991,-0.160253 -0.329991,-0.160253 l 0.0595,-5.175368 0.0039,-0.341014 0.002,-0.170507 c 5.92e-4,-0.05684 0.0031,-0.0897 0.04168,-0.129893 0.03859,-0.04017 0.06812,-0.04062 0.122038,-0.04062 h 0.161765 0.323528 z"
         sodipodi:nodetypes="czcccccccccccccccccccccsccssssscc" />
      <path
         id="t_derecha"
         style="opacity:0.99;mix-blend-mode:normal;fill:url(#linearGradient103);fill-opacity:1;stroke:none;stroke-width:0.724218;stroke-miterlimit:4;stroke-dasharray:none;stroke-opacity:0.984314;paint-order:stroke fill markers;stop-color:#000000"
         d="m 15.327644,17.433628 c 0,0 0.230959,0.06299 0.215802,0.367228 -0.01514,0.304236 -0.223643,0.314801 -0.223643,0.314801 h -0.377359 -0.377358 -0.377362 -0.377359 l -0.0037,0.32346 -0.0037,0.323461 -0.0037,0.323461 -0.0037,0.323459 -0.0037,0.323461 -0.0037,0.32346 -0.0037,0.323462 -0.0037,0.32346 -0.0037,0.32346 -0.0037,0.323461 -0.0037,0.323461 -0.0037,0.323459 -0.0037,0.323461 -0.0037,0.32346 -0.0037,0.323462 -0.0037,0.32346 c 0,0 -0.09973,0.160253 -0.317065,0.160253 -0.240003,0 -0.329991,-0.160253 -0.329991,-0.160253 l 0.0595,-5.175368 0.0039,-0.341014 0.002,-0.170507 c 5.92e-4,-0.05684 0.0031,-0.0897 0.04168,-0.129893 0.03859,-0.04017 0.06812,-0.04062 0.122038,-0.04062 h 0.161765 0.323528 z"
         sodipodi:nodetypes="czcccccccccccccccccccccsccssssscc"
         inkscape:label="t_derecha" />
      <path
         id="brillo"
         style="opacity:0.514739;mix-blend-mode:normal;fill:url(#linearGradient105);fill-opacity:1;fill-rule:evenodd;stroke-width:0.139663;stop-color:#000000"
         d="M 4.6355793,8.8904661 0.65802149,14.849146 1.5263513,15.687135 c 1.5742707,1.519174 3.1472339,2.740246 4.4312277,3.440088 0.3546172,0.193286 0.6737722,0.352231 0.709112,0.352823 0.03534,7.4e-4 0.2837779,-0.338901 0.5522059,-0.754479 0.8529468,-1.320528 1.6188919,-2.558001 2.30418,-3.709114 z M 0.68662864,15.2011 c -0.00834,0.0083 0.2468655,1.795381 0.55856306,3.957908 l 5.8948186,7.38904 c 0.558607,-0.643972 1.0419958,-1.208253 1.0419958,-1.23242 0,-0.03547 -0.1892704,-0.744934 -0.4207282,-1.576575 C 7.5298259,22.907405 7.1952757,21.653372 7.0177795,20.952306 L 6.6950092,19.677695 6.3546124,19.527435 C 5.1234065,18.984383 3.3188928,17.636886 1.409033,15.834216 1.0254627,15.472174 0.70042483,15.187312 0.68662864,15.2011 Z m 8.98959846,0.0075 c -0.6894128,1.154412 -1.4701454,2.405705 -2.3417456,3.747833 l -0.4684069,0.72096 0.3415527,1.324601 c 0.461063,1.78647 1.1285884,4.180322 1.1864761,4.255539 0.025844,0.03358 0.046593,0.101905 0.045945,0.152282 -0.00217,0.19417 0.7384223,2.558616 1.3991524,4.521384 l 3.6426522,4.566173 c 0.154451,-1.125531 0.447205,-2.434253 0.875553,-3.897226 0.619507,-2.115845 1.440067,-3.411321 3.057504,-4.82855 l 0.377674,-0.330861 0.0052,-0.05201 -4.0131,-5.030245 -2.96e-4,0.02138 -0.0035,0.323347 -0.0035,0.274803 -5.92e-4,0.04479 v 0.004 l -0.0038,0.323348 -0.0038,0.323638 -0.0035,0.323348 -0.0038,0.323349 -0.0035,0.274802 -5.91e-4,0.04479 v 0.004 l -0.0038,0.323347 v 0.0035 l -0.0035,0.320169 c 0,0 -0.0063,0.0098 -0.01907,0.02485 -0.03788,0.04483 -0.134509,0.135233 -0.298209,0.135233 -0.240004,0 -0.329993,-0.160084 -0.329993,-0.160084 l 0.04305,-3.732518 -0.408302,-0.511752 v 4.254095 l -2.96e-4,2.96e-4 c 0,0 -0.041,0.06601 -0.136968,0.113274 -0.01588,0.0078 -0.03243,0.01528 -0.05143,0.02167 -0.04463,0.01501 -0.09803,0.02514 -0.161241,0.02514 -0.228955,0 -0.332017,-0.160085 -0.332017,-0.160085 V 22.977629 22.65428 22.330643 22.007296 21.683947 21.36031 21.036962 20.713325 20.389977 20.066629 19.742992 19.419643 19.096006 18.772659 18.44931 18.192135 l -0.05288,-0.06646 H 11.65907 11.261459 10.863847 10.466236 c 0,0 -0.219481,-0.01045 -0.231746,-0.314679 -0.01228,-0.304235 0.231746,-0.367271 0.231746,-0.367271 l 2.96e-4,-2.96e-4 h 0.992583 z m -1.431516,10.403778 c -0.012635,0 -0.4478635,0.483693 -0.9842038,1.086495 l 2.2414766,2.809575 C 9.162247,28.491835 8.8219953,27.423756 8.5036208,26.368029 8.3782952,25.952445 8.2618243,25.612394 8.2447111,25.612394 Z m 9.4975929,0.06444 c -0.0083,8.88e-4 -0.01487,0.0037 -0.02023,0.0078 -1.397572,1.070705 -2.506978,2.614905 -3.033809,4.223175 -0.559046,1.706621 -0.93096,3.337733 -1.101521,4.721055 l 2.081969,2.609614 c 2.185615,-1.35082 5.669026,-3.515307 7.743884,-4.81179 l -5.117223,-6.414369 c -1.3e-4,-9.6e-5 -1.48e-4,-1.48e-4 -2.96e-4,-2.96e-4 -0.35598,-0.263693 -0.494917,-0.341807 -0.552784,-0.335197 z"
         inkscape:label="#brillo" />
    </g>
  </g>
</svg>
